<svg width="456" height="100" viewBox="0 0 456 100" fill="none" xmlns="http://www.w3.org/2000/svg">
<g clip-path="url(#clip0_159_164)">
<path d="M76.57 47.33C67.96 41.47 56.93 43.86 51.13 52.67C46.29 60.03 38.99 60.94 36.16 60.94C26.95 60.94 20.64 54.46 18.77 47.75C18.75 47.68 18.74 47.63 18.72 47.56C18.7 47.48 18.68 47.41 18.66 47.33C17.93 44.53 17.75 43.2 17.75 40.22C17.75 24.18 34.21 6.32 57.91 6.32C81.61 6.32 96.07 24.8 99.65 35.07C99.59 34.89 99.53 34.71 99.47 34.52C92.58 14.44 73.53 0 51.11 0C22.89 0 0 22.88 0 51.11C0 76.34 18.2 97.94 43.44 97.94C63.57 97.94 77.1 86.65 83.31 71.09C86.71 62.58 84.3 52.58 76.57 47.33Z" fill="#003668"/>
<path d="M99.97 36.07C96.99 26.05 82.99 6.32996 57.92 6.32996C34.21 6.32996 17.76 24.19 17.76 40.23C17.76 43.21 17.94 44.54 18.67 47.34C18.36 46.12 18.2 44.89 18.2 43.69C18.2 26.99 34.93 15.41 52.12 15.41C75.4 15.41 94.26 34.28 94.26 57.55C94.26 75.8 83.76 91.58 68.51 99.17C88.17 92.06 102.22 73.23 102.22 51.11C102.22 45.88 101.52 41.26 99.97 36.07Z" fill="#E6002D"/>
<path d="M130.33 45.09V30.5H135.42V40.78H162.35V45.09H148.63V48.67H164.92V53.03H127.3V48.67H143.54V45.09H130.33ZM156.21 63.86C156.21 65.18 155.94 66.41 155.41 67.55C154.87 68.7 154.16 69.7 153.28 70.56C152.33 71.42 151.24 72.1 150.02 72.6C148.8 73.1 147.5 73.36 146.12 73.36C144.74 73.36 143.44 73.11 142.22 72.6C141 72.1 139.91 71.42 138.96 70.56C138.07 69.7 137.36 68.7 136.83 67.55C136.29 66.4 136.03 65.17 136.03 63.86C136.03 62.55 136.3 61.31 136.83 60.17C137.36 59.02 138.08 58.01 138.96 57.12C139.91 56.29 140.99 55.63 142.22 55.12C143.44 54.62 144.74 54.36 146.12 54.36C147.5 54.36 148.8 54.61 150.02 55.12C151.24 55.62 152.33 56.29 153.28 57.12C154.17 58.01 154.88 59.02 155.41 60.17C155.94 61.32 156.21 62.55 156.21 63.86ZM151.25 63.81C151.25 62.4 150.75 61.19 149.74 60.18C148.73 59.17 147.52 58.67 146.11 58.67C144.7 58.67 143.5 59.17 142.49 60.18C141.48 61.19 140.98 62.4 140.98 63.81C140.98 65.22 141.48 66.42 142.49 67.41C143.5 68.4 144.71 68.9 146.11 68.9C147.51 68.9 148.73 68.4 149.74 67.41C150.75 66.42 151.25 65.22 151.25 63.81Z" fill="#595757"/>
<path d="M195.14 51.29H170.96V39.45H188.67V35.96H170.96V31.6H193.77V43.62H176.01V47.2H195.14V51.29Z" fill="#595757"/>
<path d="M205.33 30.78H200.24V53.12H205.33V30.78Z" fill="#595757"/>
<path d="M212.31 54.36V50H249.93V54.36H233.6V58.77H246.91V71.8H241.82V63.04H214.38V58.77H228.65V54.36H212.32H212.31ZM228.41 33.07V29.95H233.69V33.07H247.09V37.34H233.83L247.46 44.54L245.12 48.16L231.08 40.59L217.13 48.16L214.79 44.54L228.32 37.34H215.11V33.07H228.42H228.41Z" fill="#595757"/>
<path d="M266.77 30.55L279.39 50.69L275.35 53.26L266.77 39.2201L258.33 53.6301L254.2 51.01L266.77 30.55ZM261.86 57.21V66.39H289.39V70.89H256.77V57.2201H261.86V57.21ZM288.33 56.98H283.28V30.7801H288.33V40.19H294.2V45.19H288.33V56.98Z" fill="#595757"/>
<path d="M318.13 53.28H313.04V36.4H298.03V31.86H318.13V53.28Z" fill="#595757"/>
<path d="M328.36 30.66H333.46L333.49 52.85H328.35L328.36 44.89H321.66V40.44H328.36V30.66Z" fill="#595757"/>
<path d="M358.55 41.51C358.55 42.92 358.26 44.24 357.68 45.48C357.1 46.72 356.32 47.78 355.34 48.67C354.36 49.62 353.22 50.37 351.92 50.92C350.62 51.47 349.22 51.75 347.72 51.75C346.22 51.75 344.82 51.48 343.52 50.92C342.22 50.37 341.08 49.62 340.1 48.67C339.12 47.79 338.35 46.72 337.78 45.48C337.21 44.24 336.93 42.92 336.93 41.51C336.93 40.1 337.21 38.73 337.78 37.49C338.35 36.25 339.12 35.17 340.1 34.26C341.08 33.31 342.22 32.56 343.52 32.01C344.82 31.46 346.22 31.18 347.72 31.18C349.22 31.18 350.62 31.45 351.92 32.01C353.22 32.56 354.36 33.31 355.34 34.26C356.32 35.18 357.1 36.25 357.68 37.49C358.26 38.73 358.55 40.07 358.55 41.51ZM339.65 55.04H372.36V71.15H367.27V59.59H339.65V55.05V55.04ZM353.6 41.51C353.6 39.89 353.03 38.5 351.88 37.36C350.73 36.21 349.36 35.64 347.77 35.64C346.18 35.64 344.8 36.21 343.64 37.36C342.48 38.51 341.9 39.89 341.9 41.51C341.9 43.13 342.48 44.47 343.64 45.62C344.8 46.77 346.18 47.34 347.77 47.34C349.36 47.34 350.73 46.76 351.88 45.62C353.03 44.48 353.6 43.11 353.6 41.51ZM367.27 30.59H372.36V52.39H367.27V30.59Z" fill="#595757"/>
<path d="M379.65 71.13V57.92H384.74V66.82H412.18V71.13H379.65Z" fill="#595757"/>
<path d="M367.27 30.59H372.36V52.07H367.27V47.53H360.57V43.31H367.27V39.4H360.57V35.23H367.27V30.59Z" fill="#595757"/>
<path d="M130.33 45.0101V30.4301H135.42V40.7001H162.36V45.0101H148.64V48.5801H164.93V52.9401H127.3V48.5801H143.54V45.0101H130.33ZM156.21 63.7601C156.21 65.0801 155.94 66.3001 155.41 67.4501C154.87 68.6001 154.16 69.6001 153.28 70.4501C152.33 71.3101 151.24 71.9801 150.02 72.4901C148.8 72.9901 147.5 73.2501 146.12 73.2501C144.74 73.2501 143.44 73.0001 142.22 72.4901C141 71.9901 139.91 71.3101 138.96 70.4501C138.07 69.5901 137.36 68.5901 136.83 67.4501C136.29 66.3001 136.02 65.0701 136.02 63.7601C136.02 62.4501 136.29 61.2101 136.83 60.0701C137.36 58.9201 138.08 57.9101 138.96 57.0201C139.91 56.1901 140.99 55.5301 142.22 55.0301C143.44 54.5301 144.74 54.2701 146.12 54.2701C147.5 54.2701 148.8 54.5201 150.02 55.0301C151.24 55.5301 152.33 56.2001 153.28 57.0201C154.17 57.9101 154.88 58.9201 155.41 60.0701C155.95 61.2101 156.21 62.4501 156.21 63.7601ZM151.25 63.7101C151.25 62.3001 150.75 61.1001 149.74 60.0901C148.73 59.0801 147.52 58.5801 146.11 58.5801C144.7 58.5801 143.5 59.0801 142.49 60.0901C141.48 61.1001 140.98 62.3101 140.98 63.7101C140.98 65.1101 141.48 66.3201 142.49 67.3101C143.5 68.3001 144.71 68.8001 146.11 68.8001C147.51 68.8001 148.73 68.3001 149.74 67.3101C150.75 66.3201 151.25 65.1201 151.25 63.7101Z" fill="#595757"/>
<path d="M195.15 51.2H170.97V39.37H188.68V35.89H170.97V31.53H193.78V43.54H176.02V47.12H195.15V51.2Z" fill="#595757"/>
<path d="M205.34 30.71H200.24V53.03H205.34V30.71Z" fill="#595757"/>
<path d="M212.31 54.27V49.92H249.94V54.27H233.6V58.67H246.91V71.69H241.82V62.94H214.38V58.68H228.65V54.28H212.32L212.31 54.27ZM228.42 33V29.88H233.69V33H247.09V37.26H233.83L247.46 44.45L245.12 48.07L231.08 40.51L217.13 48.07L214.79 44.45L228.33 37.26H215.12V33H228.43H228.42Z" fill="#595757"/>
<path d="M266.78 30.48L279.4 50.6L275.36 53.17L266.78 39.14L258.34 53.53L254.21 50.92L266.78 30.48ZM261.87 57.11V66.28H289.4V70.77H256.77V57.11H261.87ZM288.35 56.88H283.3V30.71H288.35V40.11H294.22V45.11H288.35V56.89V56.88Z" fill="#595757"/>
<path d="M418.15 55.8501H455.78V60.3401H439.49V70.8801H434.4V60.3401H418.16V55.8501H418.15ZM426.18 35.8601H447.7V30.6801H452.75V50.3401H421.18V30.6801H426.18V35.8601ZM447.7 40.2601H426.18V45.9001H447.7V40.2601Z" fill="#595757"/>
<path d="M301.31 55.55H333.48V70.81H301.31V55.55ZM328.43 59.63H306.36V66.6H328.43V59.63ZM318.15 31.79H298.05V36.33H313.06V53.2H318.15V31.79ZM328.38 40.36H321.68V44.8H328.38V52.76H333.51L333.47 30.59H328.38V40.36Z" fill="#595757"/>
<path d="M358.58 41.43C358.58 42.84 358.29 44.16 357.71 45.4C357.13 46.64 356.35 47.7 355.37 48.58C354.39 49.53 353.25 50.28 351.95 50.83C350.65 51.38 349.25 51.65 347.75 51.65C346.25 51.65 344.85 51.38 343.55 50.83C342.25 50.28 341.11 49.53 340.13 48.58C339.15 47.7 338.38 46.63 337.81 45.4C337.24 44.16 336.96 42.84 336.96 41.43C336.96 40.02 337.24 38.66 337.81 37.42C338.38 36.18 339.15 35.11 340.13 34.19C341.11 33.24 342.25 32.49 343.55 31.94C344.85 31.39 346.25 31.11 347.75 31.11C349.25 31.11 350.65 31.39 351.95 31.94C353.25 32.49 354.39 33.24 355.37 34.19C356.35 35.11 357.13 36.18 357.71 37.42C358.29 38.66 358.58 40 358.58 41.43ZM339.67 54.95H372.39V71.04H367.3V59.49H339.68V54.95H339.67ZM353.62 41.43C353.62 39.81 353.05 38.43 351.9 37.28C350.75 36.14 349.38 35.56 347.79 35.56C346.2 35.56 344.82 36.13 343.66 37.28C342.5 38.43 341.92 39.81 341.92 41.43C341.92 43.05 342.5 44.39 343.66 45.53C344.82 46.68 346.2 47.25 347.79 47.25C349.38 47.25 350.75 46.68 351.9 45.53C353.05 44.38 353.62 43.02 353.62 41.43ZM367.29 30.52H372.38V52.29H367.29V30.52Z" fill="#595757"/>
<path d="M414.22 50.1299V54.4799H376.61V50.1299H392.85V46.5599H379.64V30.5699H384.64V34.3699H406.15V30.5699H411.2V46.5599H397.95V50.1299H414.23H414.22ZM406.15 38.5899H384.64V42.2999H406.15V38.5899ZM412.21 71.0199V66.7099H384.77V57.8199H379.68V71.0199H412.21Z" fill="#595757"/>
<path d="M367.3 30.52H372.39V51.98H367.3V47.44H360.59V43.22H367.3V39.32H360.59V35.15H367.3V30.52Z" fill="#595757"/>
<path d="M195.17 51.1699H171.02V39.36H188.71V35.88H171.02V31.53H193.8V43.52H176.07V47.09H195.18V51.16L195.17 51.1699ZM173.22 55.47H205.35V70.72H173.22V55.47ZM200.3 59.54H178.26V66.5H200.3V59.54ZM200.26 30.7H205.35V53H200.26V30.7Z" fill="#595757"/>
</g>
<defs>
<clipPath id="clip0_159_164">
<rect width="455.78" height="99.18" fill="white"/>
</clipPath>
</defs>
</svg>
