<svg width="34" height="34" viewBox="0 0 34 34" fill="none" xmlns="http://www.w3.org/2000/svg">
<path d="M25.5 23.375L19.125 17L25.5 10.625C26.0868 10.0382 26.0868 9.0868 25.5 8.5C24.9132 7.9132 23.9618 7.9132 23.375 8.5L17 14.875L10.625 8.5C10.0382 7.9132 9.0868 7.9132 8.5 8.5C7.9132 9.0868 7.9132 10.0382 8.5 10.625L14.875 17L8.5 23.375C7.9132 23.9618 7.9132 24.9132 8.5 25.5C9.0868 26.0868 10.0382 26.0868 10.625 25.5L17 19.125L23.375 25.5C23.9618 26.0868 24.9132 26.0868 25.5 25.5C26.0868 24.9132 26.0868 23.9618 25.5 23.375Z" fill="#242424"/>
</svg>
