<svg width="12" height="12" viewBox="0 0 12 12" fill="none" xmlns="http://www.w3.org/2000/svg">
<g clip-path="url(#clip0_122_180)">
<path d="M6 7.49609C5.17158 7.49609 4.5 8.16767 4.5 8.99609V11.9961H7.5V8.99609C7.5 8.16767 6.82842 7.49609 6 7.49609Z" fill="#E1E3E7"/>
<path d="M8.50001 8.99619V11.9962H10.5C11.3284 11.9962 12 11.3246 12 10.4962V5.9357C12.0001 5.67594 11.8992 5.42633 11.7185 5.2397L7.46951 0.646182C6.71979 -0.164989 5.45445 -0.214794 4.64327 0.534925C4.60474 0.57055 4.56762 0.607651 4.53202 0.646182L0.290508 5.2382C0.104367 5.4256 -7.0277e-05 5.67906 3.54804e-08 5.9432V10.4962C3.54804e-08 11.3246 0.671578 11.9962 1.5 11.9962H3.49999V8.99619C3.50934 7.63278 4.61013 6.51941 5.9392 6.48735C7.31273 6.45421 8.48953 7.58654 8.50001 8.99619Z" fill="#E1E3E7"/>
<path d="M6 7.49609C5.17158 7.49609 4.5 8.16767 4.5 8.99609V11.9961H7.5V8.99609C7.5 8.16767 6.82842 7.49609 6 7.49609Z" fill="#E1E3E7"/>
</g>
<defs>
<clipPath id="clip0_122_180">
<rect width="12" height="12" fill="white"/>
</clipPath>
</defs>
</svg>
