<svg width="50" height="50" viewBox="0 0 50 50" fill="none" xmlns="http://www.w3.org/2000/svg">
<circle cx="25" cy="25" r="25" fill="url(#paint0_linear_122_2051)"/>
<path d="M19.3143 36.2534H15.5023C14.6735 36.2534 14 35.5795 14 34.7502V18.572C14 17.7428 14.6735 17.0688 15.5023 17.0688H18.438C18.7835 17.0688 19.0639 17.3494 19.0639 17.6952C19.0639 18.0409 18.7835 18.3215 18.438 18.3215H15.5023C15.3671 18.3215 15.2519 18.4368 15.2519 18.572V34.7502C15.2519 34.8855 15.3671 35.0007 15.5023 35.0007H19.3143C19.6598 35.0007 19.9403 35.2813 19.9403 35.6271C19.9403 35.9728 19.6598 36.2534 19.3143 36.2534Z" fill="white" fill-opacity="0.88"/>
<path d="M34.7378 36.2534H29.3045C28.959 36.2534 28.6786 35.9728 28.6786 35.6271C28.6786 35.2813 28.959 35.0007 29.3045 35.0007H34.7378C34.873 35.0007 34.9882 34.8855 34.9882 34.7502V18.572C34.9882 18.4368 34.873 18.3215 34.7378 18.3215H31.7583C31.4127 18.3215 31.1323 18.0409 31.1323 17.6952C31.1323 17.3494 31.4127 17.0688 31.7583 17.0688H34.7378C35.5665 17.0688 36.2401 17.7428 36.2401 18.572V34.7502C36.2401 35.5795 35.5665 36.2534 34.7378 36.2534Z" fill="white" fill-opacity="0.88"/>
<path d="M30.8818 36.2536H19.3143C18.4855 36.2536 17.812 35.5797 17.812 34.7504V15.5032C17.812 14.6739 18.4855 14 19.3143 14H30.8818C31.7106 14 32.3841 14.6739 32.3841 15.5032V34.7504C32.3841 35.5797 31.7106 36.2536 30.8818 36.2536ZM19.3143 15.2527C19.1791 15.2527 19.0639 15.3679 19.0639 15.5032V34.7504C19.0639 34.8857 19.1791 35.0009 19.3143 35.0009H30.8818C31.0171 35.0009 31.1322 34.8857 31.1322 34.7504V15.5032C31.1322 15.3679 31.0171 15.2527 30.8818 15.2527H19.3143Z" fill="white" fill-opacity="0.88"/>
<path d="M21.4176 20.1196C21.0721 20.1196 20.7916 19.839 20.7916 19.4933V18.1341C20.7916 17.7884 21.0721 17.5078 21.4176 17.5078C21.7631 17.5078 22.0435 17.7884 22.0435 18.1341V19.4933C22.0435 19.839 21.7631 20.1196 21.4176 20.1196Z" fill="white" fill-opacity="0.88"/>
<path d="M23.8713 20.1196C23.5258 20.1196 23.2454 19.839 23.2454 19.4933V18.1341C23.2454 17.7884 23.5258 17.5078 23.8713 17.5078C24.2168 17.5078 24.4973 17.7884 24.4973 18.1341V19.4933C24.4973 19.839 24.2168 20.1196 23.8713 20.1196Z" fill="white" fill-opacity="0.88"/>
<path d="M26.3249 20.1196C25.9794 20.1196 25.699 19.839 25.699 19.4933V18.1341C25.699 17.7884 25.9794 17.5078 26.3249 17.5078C26.6704 17.5078 26.9509 17.7884 26.9509 18.1341V19.4933C26.9509 19.839 26.6704 20.1196 26.3249 20.1196Z" fill="white" fill-opacity="0.88"/>
<path d="M28.7787 20.1196C28.4331 20.1196 28.1527 19.839 28.1527 19.4933V18.1341C28.1527 17.7884 28.4331 17.5078 28.7787 17.5078C29.1242 17.5078 29.4046 17.7884 29.4046 18.1341V19.4933C29.4046 19.839 29.1242 20.1196 28.7787 20.1196Z" fill="white" fill-opacity="0.88"/>
<path d="M21.4176 23.8022C21.0721 23.8022 20.7916 23.5216 20.7916 23.1759V21.8168C20.7916 21.471 21.0721 21.1904 21.4176 21.1904C21.7631 21.1904 22.0435 21.471 22.0435 21.8168V23.1759C22.0435 23.5216 21.7631 23.8022 21.4176 23.8022Z" fill="white" fill-opacity="0.88"/>
<path d="M23.8713 23.8022C23.5258 23.8022 23.2454 23.5216 23.2454 23.1759V21.8168C23.2454 21.471 23.5258 21.1904 23.8713 21.1904C24.2168 21.1904 24.4973 21.471 24.4973 21.8168V23.1759C24.4973 23.5216 24.2168 23.8022 23.8713 23.8022Z" fill="white" fill-opacity="0.88"/>
<path d="M26.3249 23.8022C25.9794 23.8022 25.699 23.5216 25.699 23.1759V21.8168C25.699 21.471 25.9794 21.1904 26.3249 21.1904C26.6704 21.1904 26.9509 21.471 26.9509 21.8168V23.1759C26.9509 23.5216 26.6704 23.8022 26.3249 23.8022Z" fill="white" fill-opacity="0.88"/>
<path d="M28.7787 23.8022C28.4331 23.8022 28.1527 23.5216 28.1527 23.1759V21.8168C28.1527 21.471 28.4331 21.1904 28.7787 21.1904C29.1242 21.1904 29.4046 21.471 29.4046 21.8168V23.1759C29.4046 23.5216 29.1242 23.8022 28.7787 23.8022Z" fill="white" fill-opacity="0.88"/>
<path d="M21.4176 27.4849C21.0721 27.4849 20.7916 27.2043 20.7916 26.8585V25.4994C20.7916 25.1536 21.0721 24.873 21.4176 24.873C21.7631 24.873 22.0435 25.1536 22.0435 25.4994V26.8585C22.0435 27.2043 21.7631 27.4849 21.4176 27.4849Z" fill="white" fill-opacity="0.88"/>
<path d="M23.8713 27.4849C23.5258 27.4849 23.2454 27.2043 23.2454 26.8585V25.4994C23.2454 25.1536 23.5258 24.873 23.8713 24.873C24.2168 24.873 24.4973 25.1536 24.4973 25.4994V26.8585C24.4973 27.2043 24.2168 27.4849 23.8713 27.4849Z" fill="white" fill-opacity="0.88"/>
<path d="M26.3249 27.4849C25.9794 27.4849 25.699 27.2043 25.699 26.8585V25.4994C25.699 25.1536 25.9794 24.873 26.3249 24.873C26.6704 24.873 26.9509 25.1536 26.9509 25.4994V26.8585C26.9509 27.2043 26.6704 27.4849 26.3249 27.4849Z" fill="white" fill-opacity="0.88"/>
<path d="M28.7787 27.4849C28.4331 27.4849 28.1527 27.2043 28.1527 26.8585V25.4994C28.1527 25.1536 28.4331 24.873 28.7787 24.873C29.1242 24.873 29.4046 25.1536 29.4046 25.4994V26.8585C29.4046 27.2043 29.1242 27.4849 28.7787 27.4849Z" fill="white" fill-opacity="0.88"/>
<path d="M26.6317 36.2534H23.5645C22.7358 36.2534 22.0623 35.5794 22.0623 34.7502V30.9358C22.0623 30.1066 22.7358 29.4326 23.5645 29.4326H26.6317C27.4604 29.4326 28.134 30.1066 28.134 30.9358V34.7502C28.134 35.5794 27.4604 36.2534 26.6317 36.2534ZM23.5645 30.6853C23.4293 30.6853 23.3142 30.8005 23.3142 30.9358V34.7502C23.3142 34.888 23.4268 35.0007 23.5645 35.0007H26.6317C26.7694 35.0007 26.8821 34.888 26.8821 34.7502V30.9358C26.8821 30.8005 26.7669 30.6853 26.6317 30.6853H23.5645Z" fill="white" fill-opacity="0.88"/>
<defs>
<linearGradient id="paint0_linear_122_2051" x1="-13.6364" y1="19.3182" x2="55.6818" y2="37.5" gradientUnits="userSpaceOnUse">
<stop stop-color="#004687"/>
<stop offset="1" stop-color="#37AEDE"/>
</linearGradient>
</defs>
</svg>
