<svg width="50" height="50" viewBox="0 0 50 50" fill="none" xmlns="http://www.w3.org/2000/svg">
<circle cx="25" cy="25" r="25" fill="url(#paint0_linear_122_2049)"/>
<path d="M33.1158 36.2227H16.8815C16.0184 36.2227 15.3169 35.5208 15.3169 34.6571V18.2641C15.3169 17.9041 15.609 17.6118 15.9688 17.6118C16.3287 17.6118 16.6207 17.9041 16.6207 18.2641V34.6571C16.6207 34.798 16.7407 34.918 16.8815 34.918H33.1158C33.2566 34.918 33.3766 34.798 33.3766 34.6571V18.2641C33.3766 17.9041 33.6686 17.6118 34.0285 17.6118C34.3884 17.6118 34.6804 17.9041 34.6804 18.2641V34.6571C34.6804 35.5208 33.979 36.2227 33.1158 36.2227Z" fill="white" fill-opacity="0.88"/>
<path d="M26.5966 36.223H23.4021C22.539 36.223 21.8375 35.5211 21.8375 34.6574V30.6847C21.8375 29.821 22.539 29.1191 23.4021 29.1191H26.5966C27.4597 29.1191 28.1612 29.821 28.1612 30.6847V34.6574C28.1612 35.5211 27.4597 36.223 26.5966 36.223ZM23.4021 30.4238C23.2613 30.4238 23.1414 30.5438 23.1414 30.6847V34.6574C23.1414 34.8009 23.2587 34.9183 23.4021 34.9183H26.5966C26.74 34.9183 26.8574 34.8009 26.8574 34.6574V30.6847C26.8574 30.5438 26.7374 30.4238 26.5966 30.4238H23.4021Z" fill="white" fill-opacity="0.88"/>
<path d="M19.1398 23.5283C18.78 23.5283 18.4879 23.2361 18.4879 22.876V21.4604C18.4879 21.1003 18.78 20.8081 19.1398 20.8081C19.4997 20.8081 19.7918 21.1003 19.7918 21.4604V22.876C19.7918 23.2361 19.4997 23.5283 19.1398 23.5283Z" fill="white" fill-opacity="0.88"/>
<path d="M22.0605 23.5283C21.7006 23.5283 21.4086 23.2361 21.4086 22.876V21.4604C21.4086 21.1003 21.7006 20.8081 22.0605 20.8081C22.4204 20.8081 22.7124 21.1003 22.7124 21.4604V22.876C22.7124 23.2361 22.4204 23.5283 22.0605 23.5283Z" fill="white" fill-opacity="0.88"/>
<path d="M24.981 23.5283C24.6212 23.5283 24.3291 23.2361 24.3291 22.876V21.4604C24.3291 21.1003 24.6212 20.8081 24.981 20.8081C25.3409 20.8081 25.633 21.1003 25.633 21.4604V22.876C25.633 23.2361 25.3409 23.5283 24.981 23.5283Z" fill="white" fill-opacity="0.88"/>
<path d="M27.9029 23.5283C27.543 23.5283 27.251 23.2361 27.251 22.876V21.4604C27.251 21.1003 27.543 20.8081 27.9029 20.8081C28.2628 20.8081 28.5548 21.1003 28.5548 21.4604V22.876C28.5548 23.2361 28.2628 23.5283 27.9029 23.5283Z" fill="white" fill-opacity="0.88"/>
<path d="M19.1398 27.6836C18.78 27.6836 18.4879 27.3913 18.4879 27.0312V25.6157C18.4879 25.2556 18.78 24.9634 19.1398 24.9634C19.4997 24.9634 19.7918 25.2556 19.7918 25.6157V27.0312C19.7918 27.3913 19.4997 27.6836 19.1398 27.6836Z" fill="white" fill-opacity="0.88"/>
<path d="M22.0605 27.6836C21.7006 27.6836 21.4086 27.3913 21.4086 27.0312V25.6157C21.4086 25.2556 21.7006 24.9634 22.0605 24.9634C22.4204 24.9634 22.7124 25.2556 22.7124 25.6157V27.0312C22.7124 27.3913 22.4204 27.6836 22.0605 27.6836Z" fill="white" fill-opacity="0.88"/>
<path d="M24.981 27.6836C24.6212 27.6836 24.3291 27.3913 24.3291 27.0312V25.6157C24.3291 25.2556 24.6212 24.9634 24.981 24.9634C25.3409 24.9634 25.633 25.2556 25.633 25.6157V27.0312C25.633 27.3913 25.3409 27.6836 24.981 27.6836Z" fill="white" fill-opacity="0.88"/>
<path d="M27.9029 27.6836C27.543 27.6836 27.251 27.3913 27.251 27.0312V25.6157C27.251 25.2556 27.543 24.9634 27.9029 24.9634C28.2628 24.9634 28.5548 25.2556 28.5548 25.6157V27.0312C28.5548 27.3913 28.2628 27.6836 27.9029 27.6836Z" fill="white" fill-opacity="0.88"/>
<path d="M30.8237 23.5283C30.4638 23.5283 30.1718 23.2361 30.1718 22.876V21.4604C30.1718 21.1003 30.4638 20.8081 30.8237 20.8081C31.1835 20.8081 31.4756 21.1003 31.4756 21.4604V22.876C31.4756 23.2361 31.1835 23.5283 30.8237 23.5283Z" fill="white" fill-opacity="0.88"/>
<path d="M30.8237 27.6836C30.4638 27.6836 30.1718 27.3913 30.1718 27.0312V25.6157C30.1718 25.2556 30.4638 24.9634 30.8237 24.9634C31.1835 24.9634 31.4756 25.2556 31.4756 25.6157V27.0312C31.4756 27.3913 31.1835 27.6836 30.8237 27.6836Z" fill="white" fill-opacity="0.88"/>
<path d="M34.4327 18.9166H15.566C15.017 18.9166 14.519 18.6374 14.2321 18.169C13.9453 17.7007 13.9231 17.1292 14.1721 16.64L15.592 13.8545C15.8606 13.3275 16.3952 13 16.9859 13H33.0141C33.6048 13 34.1394 13.3275 34.408 13.8545L35.8279 16.64C36.0769 17.1292 36.0547 17.7007 35.7679 18.169C35.481 18.6374 34.983 18.9166 34.434 18.9166H34.4327ZM16.9859 14.3047C16.8868 14.3047 16.7981 14.3594 16.7538 14.4469L15.3339 17.2323C15.2765 17.3458 15.3156 17.441 15.3443 17.4867C15.373 17.5337 15.4395 17.6119 15.5673 17.6119H34.434C34.5605 17.6119 34.6283 17.5337 34.657 17.4867C34.6857 17.4397 34.7248 17.3445 34.6674 17.2323L33.2475 14.4469C33.2032 14.3594 33.1132 14.3047 33.0154 14.3047H16.9872H16.9859Z" fill="white" fill-opacity="0.88"/>
<defs>
<linearGradient id="paint0_linear_122_2049" x1="-13.6364" y1="19.3182" x2="55.6818" y2="37.5" gradientUnits="userSpaceOnUse">
<stop stop-color="#004687"/>
<stop offset="1" stop-color="#37AEDE"/>
</linearGradient>
</defs>
</svg>
