<svg width="50" height="50" viewBox="0 0 50 50" fill="none" xmlns="http://www.w3.org/2000/svg">
<circle cx="25" cy="25" r="25" fill="url(#paint0_linear_122_2048)"/>
<path d="M22.7413 36.2799H16.5697C15.7038 36.2799 15 35.5757 15 34.7092V14.5707C15 13.7042 15.7038 13 16.5697 13H29.8429C30.7089 13 31.4126 13.7042 31.4126 14.5707V21.8782C31.4126 22.2394 31.1196 22.5326 30.7586 22.5326C30.3975 22.5326 30.1045 22.2394 30.1045 21.8782V14.5707C30.1045 14.4267 29.9868 14.3089 29.8429 14.3089H16.5697C16.4284 14.3089 16.3081 14.4293 16.3081 14.5707V34.7092C16.3081 34.8506 16.4284 34.971 16.5697 34.971H22.7413C23.1023 34.971 23.3953 35.2642 23.3953 35.6255C23.3953 35.9867 23.1023 36.2799 22.7413 36.2799Z" fill="white" fill-opacity="0.88"/>
<path d="M35.7804 36.2799H22.9899C22.1239 36.2799 21.4202 35.5758 21.4202 34.7093V22.8285C21.4202 21.962 22.1239 21.2578 22.9899 21.2578H35.7804C36.6463 21.2578 37.3501 21.962 37.3501 22.8285V34.7093C37.3501 35.5758 36.6463 36.2799 35.7804 36.2799ZM22.9899 22.5667C22.846 22.5667 22.7283 22.6845 22.7283 22.8285V34.7093C22.7283 34.8533 22.846 34.9711 22.9899 34.9711H35.7804C35.9243 34.9711 36.042 34.8533 36.042 34.7093V22.8285C36.042 22.6845 35.9243 22.5667 35.7804 22.5667H22.9899Z" fill="white" fill-opacity="0.88"/>
<path d="M24.8722 27.8297C24.5112 27.8297 24.2181 27.5365 24.2181 27.1752V25.6779C24.2181 25.3166 24.5112 25.0234 24.8722 25.0234C25.2332 25.0234 25.5262 25.3166 25.5262 25.6779V27.1752C25.5262 27.5365 25.2332 27.8297 24.8722 27.8297Z" fill="white" fill-opacity="0.88"/>
<path d="M24.8722 31.8858C24.5112 31.8858 24.2181 31.5927 24.2181 31.2314V29.734C24.2181 29.3728 24.5112 29.0796 24.8722 29.0796C25.2332 29.0796 25.5262 29.3728 25.5262 29.734V31.2314C25.5262 31.5927 25.2332 31.8858 24.8722 31.8858Z" fill="white" fill-opacity="0.88"/>
<path d="M27.4779 27.8297C27.1169 27.8297 26.8239 27.5365 26.8239 27.1752V25.6779C26.8239 25.3166 27.1169 25.0234 27.4779 25.0234C27.8389 25.0234 28.1319 25.3166 28.1319 25.6779V27.1752C28.1319 27.5365 27.8389 27.8297 27.4779 27.8297Z" fill="white" fill-opacity="0.88"/>
<path d="M27.4779 31.8858C27.1169 31.8858 26.8239 31.5927 26.8239 31.2314V29.734C26.8239 29.3728 27.1169 29.0796 27.4779 29.0796C27.8389 29.0796 28.1319 29.3728 28.1319 29.734V31.2314C28.1319 31.5927 27.8389 31.8858 27.4779 31.8858Z" fill="white" fill-opacity="0.88"/>
<path d="M19.2736 19.234C18.9125 19.234 18.6195 18.9408 18.6195 18.5796V17.0822C18.6195 16.7209 18.9125 16.4277 19.2736 16.4277C19.6346 16.4277 19.9276 16.7209 19.9276 17.0822V18.5796C19.9276 18.9408 19.6346 19.234 19.2736 19.234Z" fill="white" fill-opacity="0.88"/>
<path d="M21.8806 19.234C21.5196 19.234 21.2266 18.9408 21.2266 18.5796V17.0822C21.2266 16.7209 21.5196 16.4277 21.8806 16.4277C22.2416 16.4277 22.5347 16.7209 22.5347 17.0822V18.5796C22.5347 18.9408 22.2416 19.234 21.8806 19.234Z" fill="white" fill-opacity="0.88"/>
<path d="M24.4863 19.234C24.1253 19.234 23.8323 18.9408 23.8323 18.5796V17.0822C23.8323 16.7209 24.1253 16.4277 24.4863 16.4277C24.8474 16.4277 25.1404 16.7209 25.1404 17.0822V18.5796C25.1404 18.9408 24.8474 19.234 24.4863 19.234Z" fill="white" fill-opacity="0.88"/>
<path d="M27.092 19.234C26.731 19.234 26.438 18.9408 26.438 18.5796V17.0822C26.438 16.7209 26.731 16.4277 27.092 16.4277C27.4531 16.4277 27.7461 16.7209 27.7461 17.0822V18.5796C27.7461 18.9408 27.4531 19.234 27.092 19.234Z" fill="white" fill-opacity="0.88"/>
<path d="M19.2736 23.2906C18.9125 23.2906 18.6195 22.9975 18.6195 22.6362V21.1388C18.6195 20.7776 18.9125 20.4844 19.2736 20.4844C19.6346 20.4844 19.9276 20.7776 19.9276 21.1388V22.6362C19.9276 22.9975 19.6346 23.2906 19.2736 23.2906Z" fill="white" fill-opacity="0.88"/>
<path d="M19.2736 27.3468C18.9125 27.3468 18.6195 27.0536 18.6195 26.6924V25.195C18.6195 24.8337 18.9125 24.5405 19.2736 24.5405C19.6346 24.5405 19.9276 24.8337 19.9276 25.195V26.6924C19.9276 27.0536 19.6346 27.3468 19.2736 27.3468Z" fill="white" fill-opacity="0.88"/>
<path d="M19.2736 31.4752C18.9125 31.4752 18.6195 31.182 18.6195 30.8208V29.3234C18.6195 28.9621 18.9125 28.6689 19.2736 28.6689C19.6346 28.6689 19.9276 28.9621 19.9276 29.3234V30.8208C19.9276 31.182 19.6346 31.4752 19.2736 31.4752Z" fill="white" fill-opacity="0.88"/>
<path d="M32.9404 36.2799H30.9417C30.0757 36.2799 29.3719 35.5757 29.3719 34.7092V26.5941C29.3719 25.7276 30.0757 25.0234 30.9417 25.0234H32.9404C33.8064 25.0234 34.5101 25.7276 34.5101 26.5941V34.7092C34.5101 35.5757 33.8064 36.2799 32.9404 36.2799ZM30.9417 26.3323C30.7978 26.3323 30.68 26.4501 30.68 26.5941V34.7092C30.68 34.8532 30.7978 34.971 30.9417 34.971H32.9404C33.0843 34.971 33.202 34.8532 33.202 34.7092V26.5941C33.202 26.4501 33.0843 26.3323 32.9404 26.3323H30.9417Z" fill="white" fill-opacity="0.88"/>
<defs>
<linearGradient id="paint0_linear_122_2048" x1="-13.6364" y1="19.3182" x2="55.6818" y2="37.5" gradientUnits="userSpaceOnUse">
<stop stop-color="#004687"/>
<stop offset="1" stop-color="#37AEDE"/>
</linearGradient>
</defs>
</svg>
