<svg width="50" height="50" viewBox="0 0 50 50" fill="none" xmlns="http://www.w3.org/2000/svg">
<circle cx="25" cy="25" r="25" fill="url(#paint0_linear_122_2050)"/>
<path d="M34.9314 34.8616H22.065C21.704 34.8616 21.411 34.5685 21.411 34.2072C21.411 33.8459 21.704 33.5528 22.065 33.5528H34.9314C35.0726 33.5528 35.193 33.4323 35.193 33.291V17.9914C35.193 17.8814 35.1237 17.7832 35.0203 17.7453L22.842 13.3252C22.7308 13.2846 22.6445 13.3278 22.6026 13.3566C22.5608 13.3854 22.4914 13.4521 22.4914 13.5712V20.0293C22.4914 20.3905 22.1984 20.6837 21.8374 20.6837C21.4764 20.6837 21.1833 20.3905 21.1833 20.0293V13.5712C21.1833 13.0595 21.4332 12.5791 21.8518 12.2846C22.2704 11.9914 22.8067 11.9194 23.2881 12.0935L35.4664 16.5136C36.0851 16.7387 36.5011 17.3317 36.5011 17.99V33.2897C36.5011 34.1561 35.7973 34.8603 34.9314 34.8603V34.8616Z" fill="white" fill-opacity="0.88"/>
<path d="M25.0422 21.3931C24.6812 21.3931 24.3882 21.0999 24.3882 20.7386V19.3185C24.3882 18.9573 24.6812 18.6641 25.0422 18.6641C25.4033 18.6641 25.6963 18.9573 25.6963 19.3185V20.7386C25.6963 21.0999 25.4033 21.3931 25.0422 21.3931Z" fill="white" fill-opacity="0.88"/>
<path d="M27.6061 21.3931C27.245 21.3931 26.952 21.0999 26.952 20.7386V19.3185C26.952 18.9573 27.245 18.6641 27.6061 18.6641C27.9671 18.6641 28.2601 18.9573 28.2601 19.3185V20.7386C28.2601 21.0999 27.9671 21.3931 27.6061 21.3931Z" fill="white" fill-opacity="0.88"/>
<path d="M30.1699 21.3931C29.8089 21.3931 29.5159 21.0999 29.5159 20.7386V19.3185C29.5159 18.9573 29.8089 18.6641 30.1699 18.6641C30.5309 18.6641 30.824 18.9573 30.824 19.3185V20.7386C30.824 21.0999 30.5309 21.3931 30.1699 21.3931Z" fill="white" fill-opacity="0.88"/>
<path d="M32.7338 21.3931C32.3727 21.3931 32.0797 21.0999 32.0797 20.7386V19.3185C32.0797 18.9573 32.3727 18.6641 32.7338 18.6641C33.0948 18.6641 33.3878 18.9573 33.3878 19.3185V20.7386C33.3878 21.0999 33.0948 21.3931 32.7338 21.3931Z" fill="white" fill-opacity="0.88"/>
<path d="M25.0422 25.2413C24.6812 25.2413 24.3882 24.9481 24.3882 24.5868V23.1667C24.3882 22.8054 24.6812 22.5122 25.0422 22.5122C25.4033 22.5122 25.6963 22.8054 25.6963 23.1667V24.5868C25.6963 24.9481 25.4033 25.2413 25.0422 25.2413Z" fill="white" fill-opacity="0.88"/>
<path d="M27.6061 25.2413C27.245 25.2413 26.952 24.9481 26.952 24.5868V23.1667C26.952 22.8054 27.245 22.5122 27.6061 22.5122C27.9671 22.5122 28.2601 22.8054 28.2601 23.1667V24.5868C28.2601 24.9481 27.9671 25.2413 27.6061 25.2413Z" fill="white" fill-opacity="0.88"/>
<path d="M30.1699 25.2413C29.8089 25.2413 29.5159 24.9481 29.5159 24.5868V23.1667C29.5159 22.8054 29.8089 22.5122 30.1699 22.5122C30.5309 22.5122 30.824 22.8054 30.824 23.1667V24.5868C30.824 24.9481 30.5309 25.2413 30.1699 25.2413Z" fill="white" fill-opacity="0.88"/>
<path d="M32.7338 25.2413C32.3727 25.2413 32.0797 24.9481 32.0797 24.5868V23.1667C32.0797 22.8054 32.3727 22.5122 32.7338 22.5122C33.0948 22.5122 33.3878 22.8054 33.3878 23.1667V24.5868C33.3878 24.9481 33.0948 25.2413 32.7338 25.2413Z" fill="white" fill-opacity="0.88"/>
<path d="M18.2179 26.1587C17.8569 26.1587 17.5638 25.8655 17.5638 25.5043V24.0841C17.5638 23.7229 17.8569 23.4297 18.2179 23.4297C18.5789 23.4297 18.8719 23.7229 18.8719 24.0841V25.5043C18.8719 25.8655 18.5789 26.1587 18.2179 26.1587Z" fill="white" fill-opacity="0.88"/>
<path d="M20.7831 26.1587C20.422 26.1587 20.129 25.8655 20.129 25.5043V24.0841C20.129 23.7229 20.422 23.4297 20.7831 23.4297C21.1441 23.4297 21.4371 23.7229 21.4371 24.0841V25.5043C21.4371 25.8655 21.1441 26.1587 20.7831 26.1587Z" fill="white" fill-opacity="0.88"/>
<path d="M18.2179 30.0069C17.8569 30.0069 17.5638 29.7137 17.5638 29.3524V27.9323C17.5638 27.571 17.8569 27.2778 18.2179 27.2778C18.5789 27.2778 18.8719 27.571 18.8719 27.9323V29.3524C18.8719 29.7137 18.5789 30.0069 18.2179 30.0069Z" fill="white" fill-opacity="0.88"/>
<path d="M20.7831 30.0069C20.422 30.0069 20.129 29.7137 20.129 29.3524V27.9323C20.129 27.571 20.422 27.2778 20.7831 27.2778C21.1441 27.2778 21.4371 27.571 21.4371 27.9323V29.3524C21.4371 29.7137 21.1441 30.0069 20.7831 30.0069Z" fill="white" fill-opacity="0.88"/>
<path d="M30.4904 34.8618H27.2855C26.4196 34.8618 25.7158 34.1576 25.7158 33.2911V29.3055C25.7158 28.439 26.4196 27.7349 27.2855 27.7349H30.4904C31.3563 27.7349 32.0601 28.439 32.0601 29.3055V33.2911C32.0601 34.1576 31.3563 34.8618 30.4904 34.8618ZM27.2855 29.0438C27.1443 29.0438 27.0239 29.1642 27.0239 29.3055V33.2911C27.0239 33.4351 27.1416 33.5529 27.2855 33.5529H30.4904C30.6342 33.5529 30.752 33.4351 30.752 33.2911V29.3055C30.752 29.1642 30.6316 29.0438 30.4904 29.0438H27.2855Z" fill="white" fill-opacity="0.88"/>
<path d="M22.3868 34.8616H16.5697C15.7038 34.8616 15 34.1575 15 33.291V20.9442C15 20.0777 15.7038 19.3735 16.5697 19.3735H22.3868C23.2527 19.3735 23.9565 20.0777 23.9565 20.9442V33.291C23.9565 34.1575 23.2527 34.8616 22.3868 34.8616ZM16.5697 20.6824C16.4258 20.6824 16.3081 20.8002 16.3081 20.9442V33.291C16.3081 33.4349 16.4258 33.5527 16.5697 33.5527H22.3868C22.5307 33.5527 22.6484 33.4349 22.6484 33.291V20.9442C22.6484 20.8002 22.5307 20.6824 22.3868 20.6824H16.5697Z" fill="white" fill-opacity="0.88"/>
<defs>
<linearGradient id="paint0_linear_122_2050" x1="-13.6364" y1="19.3182" x2="55.6818" y2="37.5" gradientUnits="userSpaceOnUse">
<stop stop-color="#004687"/>
<stop offset="1" stop-color="#37AEDE"/>
</linearGradient>
</defs>
</svg>
